<?xml version="1.0" standalone="no"?>
<!DOCTYPE svg PUBLIC "-//W3C//DTD SVG 20010904//EN"
 "http://www.w3.org/TR/2001/REC-SVG-20010904/DTD/svg10.dtd">
<svg version="1.0" xmlns="http://www.w3.org/2000/svg"
 width="1080.000000pt" height="1019.000000pt" viewBox="0 0 1080.000000 1019.000000"
 preserveAspectRatio="xMidYMid meet">

<g transform="translate(0.000000,1019.000000) scale(0.100000,-0.100000)"
fill="#000000" stroke="none">
<path d="M7063 6648 c-55 -96 -89 -221 -80 -299 8 -62 48 -141 95 -183 20 -19
38 -33 39 -32 2 1 -2 40 -7 87 -5 46 -7 113 -3 148 6 61 7 63 19 38 22 -40 44
-146 44 -212 l1 -60 22 28 c12 16 27 45 33 65 9 28 12 32 13 14 1 -21 8 -17
69 38 66 60 192 131 257 145 24 5 18 -1 -30 -33 -67 -43 -153 -124 -205 -192
-19 -25 -39 -49 -45 -53 -13 -11 27 -39 79 -54 49 -15 156 -17 156 -3 0 6 12
10 26 10 60 0 191 99 150 113 -6 2 9 26 34 53 25 27 82 101 127 165 45 64 95
128 113 142 l31 26 -73 23 c-60 19 -96 23 -198 23 -146 0 -209 -16 -298 -75
-90 -61 -144 -140 -178 -260 l-12 -45 -1 75 c-1 77 -16 142 -46 201 -23 45
-93 139 -104 139 -5 0 -18 -15 -28 -32z"/>
<path d="M6435 6624 c-56 -9 -185 -46 -185 -54 0 -4 10 -15 21 -26 20 -18 97
-114 113 -143 7 -10 3 -12 -13 -6 -15 4 -21 2 -21 -8 0 -9 3 -17 8 -19 4 -1
27 -29 51 -60 24 -32 48 -58 54 -58 6 0 1 10 -11 23 -12 13 -22 32 -21 43 0
17 2 16 17 -6 9 -14 39 -49 66 -77 50 -55 50 -70 0 -31 -29 22 -28 22 4 -15
17 -21 32 -41 32 -46 0 -14 93 -58 149 -71 89 -21 170 -17 219 10 23 13 42 27
42 31 0 18 -157 183 -219 229 -39 29 -71 54 -71 56 0 2 18 -3 41 -11 77 -27
159 -78 221 -136 34 -32 64 -57 66 -55 10 10 -23 139 -50 194 -33 67 -112 149
-177 181 -82 42 -246 68 -336 55z m-21 -270 c3 -8 2 -12 -4 -9 -6 3 -10 10
-10 16 0 14 7 11 14 -7z"/>
<path d="M7862 6415 c-12 -9 -22 -23 -22 -31 0 -8 -7 -17 -15 -20 -8 -4 -15
-14 -15 -24 0 -11 -4 -22 -10 -25 -5 -3 -15 -16 -21 -28 -10 -22 43 35 89 93
29 37 25 56 -6 35z"/>
<path d="M3434 6072 l-31 -20 -6 -197 c-4 -109 -7 -380 -7 -601 0 -388 1 -404
19 -414 87 -46 285 69 354 206 62 124 86 250 86 444 1 231 -42 383 -138 492
-75 85 -213 130 -277 90z m187 -144 c35 -50 66 -129 86 -227 12 -57 14 -116
10 -255 -5 -198 -18 -268 -68 -368 -30 -60 -106 -148 -128 -148 -9 0 -11 90
-6 398 3 218 8 461 11 539 l6 143 30 -21 c16 -12 43 -40 59 -61z"/>
<path d="M4133 6048 c-11 -13 -28 -37 -37 -55 -18 -35 -63 -236 -101 -448 -14
-77 -35 -189 -46 -250 -11 -60 -29 -168 -39 -240 -11 -71 -23 -144 -26 -162
-7 -36 14 -53 65 -53 40 0 61 24 61 70 0 23 5 40 14 43 7 3 77 9 155 13 l141
7 0 -29 c0 -47 25 -74 68 -74 64 0 67 7 53 102 -7 45 -17 115 -22 153 -17 114
-27 183 -48 315 -11 69 -27 170 -36 225 -28 185 -65 342 -91 383 -11 16 -24
22 -52 22 -27 0 -45 -7 -59 -22z m81 -408 c14 -91 30 -194 36 -230 6 -36 20
-119 30 -185 11 -66 20 -135 20 -152 l0 -33 -57 -1 c-32 0 -89 -4 -128 -8 -38
-5 -74 -5 -78 -1 -5 4 3 72 17 151 14 79 30 169 36 199 41 228 85 439 91 433
4 -5 19 -82 33 -173z"/>
<path d="M4540 6060 c-13 -8 -16 -62 -21 -342 -4 -183 -7 -450 -8 -594 -1
-241 0 -262 17 -277 22 -20 51 -22 87 -5 l25 11 0 299 0 298 27 11 c14 5 33 8
42 7 11 -2 41 -77 96 -243 98 -294 114 -335 133 -357 18 -22 61 -23 87 -4 19
14 19 16 -9 92 -15 44 -34 102 -43 129 -8 28 -27 86 -43 130 -15 44 -41 121
-56 170 -15 50 -31 94 -36 99 -14 17 -9 39 21 101 34 68 89 208 120 305 39
119 41 126 41 143 0 26 -43 42 -81 31 -29 -8 -33 -15 -51 -83 -19 -73 -71
-212 -130 -349 -27 -61 -38 -76 -66 -88 -19 -8 -39 -14 -44 -14 -7 0 -8 87 -3
255 6 197 4 259 -5 270 -14 17 -77 20 -100 5z"/>
<path d="M5313 6048 c-32 -24 -47 -59 -78 -193 -9 -38 -20 -88 -25 -110 -5
-22 -14 -65 -19 -95 -24 -129 -41 -228 -47 -265 -3 -22 -8 -43 -11 -48 -5 -8
-51 -298 -63 -402 -5 -38 -5 -74 0 -79 5 -5 27 -9 50 -10 47 -1 56 9 66 70 l6
41 66 7 c37 3 97 6 135 6 37 0 67 3 67 6 0 18 -35 33 -86 37 -47 2 -42 4 29 5
48 1 87 5 87 10 0 4 -62 4 -137 0 -76 -4 -142 -3 -146 1 -8 8 6 106 48 321 24
123 45 246 67 385 14 85 29 111 40 69 9 -31 64 -365 71 -424 2 -19 3 11 2 67
-1 56 -6 107 -12 115 -6 7 -16 54 -22 103 -7 50 -14 98 -17 108 -4 12 0 17 15
17 16 0 21 -8 24 -37 l4 -38 2 40 c2 33 4 37 12 20 6 -14 7 -6 3 27 -3 27 -2
54 3 60 7 12 24 -69 39 -184 4 -27 11 -48 15 -48 5 0 7 10 4 23 -2 12 -16 87
-31 167 -14 80 -28 147 -31 150 -2 2 -8 -2 -13 -9 -12 -21 -40 10 -40 44 0 17
-7 29 -22 35 -13 5 -16 9 -8 9 20 1 45 -16 46 -31 1 -7 2 -19 3 -25 0 -7 6
-13 12 -13 16 0 1 62 -19 78 -24 18 -53 15 -89 -10z m67 -88 c0 -5 -5 -10 -11
-10 -5 0 -7 5 -4 10 3 6 8 10 11 10 2 0 4 -4 4 -10z m-113 -62 c-3 -8 -6 -5
-6 6 -1 11 2 17 5 13 3 -3 4 -12 1 -19z m180 -10 c-3 -7 -5 -2 -5 12 0 14 2
19 5 13 2 -7 2 -19 0 -25z m-117 -44 c0 -8 -4 -14 -10 -14 -5 0 -10 9 -10 21
0 11 5 17 10 14 6 -3 10 -13 10 -21z m-73 -16 c-3 -8 -6 -5 -6 6 -1 11 2 17 5
13 3 -3 4 -12 1 -19z m52 -98 c-6 -28 -13 -49 -15 -47 -3 2 0 25 6 50 5 25 7
54 4 64 -5 16 -4 16 5 1 8 -12 8 -31 0 -68z m-36 53 c-7 -2 -13 -14 -14 -26 0
-12 -3 -16 -6 -9 -7 18 4 42 19 41 10 0 10 -2 1 -6z m-43 -60 c-11 -17 -11
-17 -6 0 3 10 7 26 7 35 1 15 2 15 6 0 2 -10 -1 -25 -7 -35z m57 -115 c-3 -8
-6 -5 -6 6 -1 11 2 17 5 13 3 -3 4 -12 1 -19z m-90 -50 c-3 -7 -5 -2 -5 12 0
14 2 19 5 13 2 -7 2 -19 0 -25z m230 -40 c-3 -7 -5 -2 -5 12 0 14 2 19 5 13 2
-7 2 -19 0 -25z m-235 -33 c3 -13 1 -22 -3 -19 -5 3 -9 -7 -9 -22 0 -15 -3
-25 -6 -21 -6 5 4 87 11 87 1 0 5 -11 7 -25z m48 -95 c5 0 6 -8 3 -17 -6 -15
-7 -15 -14 3 -4 10 -7 28 -7 39 1 17 1 16 5 -2 2 -13 8 -23 13 -23z m-60 -24
c0 -26 -6 -18 -14 19 -5 22 -4 26 4 15 5 -8 10 -24 10 -34z m47 -88 c-3 -8 -6
-5 -6 6 -1 11 2 17 5 13 3 -3 4 -12 1 -19z m71 -275 c-10 -2 -28 -2 -40 0 -13
2 -5 4 17 4 22 1 32 -1 23 -4z m82 -13 c-36 -12 -72 -12 -65 0 3 6 25 10 48 9
36 -1 38 -2 17 -9z m-293 -72 c-3 -8 -6 -5 -6 6 -1 11 2 17 5 13 3 -3 4 -12 1
-19z m56 -9 c-8 -8 -13 -7 -18 2 -5 8 -4 10 3 5 7 -4 12 -2 12 5 0 7 3 9 7 6
4 -4 2 -12 -4 -18z"/>
<path d="M5855 5869 c-4 -6 -5 -12 -2 -15 2 -3 7 2 10 11 7 17 1 20 -8 4z"/>
<path d="M5727 5806 c-3 -8 0 -17 7 -19 10 -4 12 1 9 14 -6 23 -9 24 -16 5z"/>
<path d="M5402 5760 c0 -14 2 -19 5 -12 2 6 2 18 0 25 -3 6 -5 1 -5 -13z"/>
<path d="M5811 5744 c0 -11 3 -14 6 -6 3 7 2 16 -1 19 -3 4 -6 -2 -5 -13z"/>
<path d="M5451 5728 c-1 -21 -5 -25 -21 -21 -12 3 -20 0 -20 -6 0 -7 5 -9 10
-6 6 3 13 -1 16 -9 3 -9 13 -16 21 -16 11 0 13 -9 7 -47 -5 -39 -4 -46 7 -36
14 14 14 104 -1 113 -4 3 -10 16 -13 30 l-4 25 -2 -27z"/>
<path d="M5411 5665 c0 -11 6 -38 14 -60 l13 -40 -5 50 c-5 48 -24 90 -22 50z"/>
<path d="M5791 5634 c0 -11 3 -14 6 -6 3 7 2 16 -1 19 -3 4 -6 -2 -5 -13z"/>
<path d="M5506 5565 c-3 -8 -1 -15 4 -15 6 0 10 7 10 15 0 8 -2 15 -4 15 -2 0
-6 -7 -10 -15z"/>
<path d="M5524 5401 c1 -66 5 -123 9 -127 4 -4 5 22 2 57 l-4 64 9 -59 c5 -32
12 -61 15 -64 8 -8 5 49 -5 93 -5 22 -12 65 -15 95 -3 30 -7 56 -9 57 -2 2 -2
-51 -2 -116z"/>
<path d="M5773 5430 c0 -25 2 -35 4 -22 2 12 2 32 0 45 -2 12 -4 2 -4 -23z"/>
<path d="M5457 5297 c-5 -12 18 -196 29 -229 7 -24 24 -13 23 15 0 21 -1 21
-9 2 l-9 -20 -1 20 c0 11 -7 61 -14 110 -10 62 -11 94 -4 103 7 8 7 12 0 12
-5 0 -12 -6 -15 -13z"/>
<path d="M5487 5277 c-11 -29 -9 -43 4 -30 6 6 9 19 7 29 -3 18 -4 18 -11 1z"/>
<path d="M5781 5244 c0 -11 3 -14 6 -6 3 7 2 16 -1 19 -3 4 -6 -2 -5 -13z"/>
<path d="M5562 5225 c0 -16 2 -22 5 -12 2 9 2 23 0 30 -3 6 -5 -1 -5 -18z"/>
<path d="M5791 5184 c0 -11 3 -14 6 -6 3 7 2 16 -1 19 -3 4 -6 -2 -5 -13z"/>
<path d="M5572 5150 c0 -19 2 -27 5 -17 2 9 2 25 0 35 -3 9 -5 1 -5 -18z"/>
<path d="M5510 5139 c0 -5 5 -7 10 -4 6 3 10 8 10 11 0 2 -4 4 -10 4 -5 0 -10
-5 -10 -11z"/>
<path d="M5701 5114 c0 -11 3 -14 6 -6 3 7 2 16 -1 19 -3 4 -6 -2 -5 -13z"/>
<path d="M5710 5070 c0 -5 5 -10 11 -10 5 0 7 5 4 10 -3 6 -8 10 -11 10 -2 0
-4 -4 -4 -10z"/>
<path d="M5602 4985 c0 -16 2 -22 5 -12 2 9 2 23 0 30 -3 6 -5 -1 -5 -18z"/>
<path d="M5488 4978 c5 -5 16 -8 23 -6 8 3 3 7 -10 11 -17 4 -21 3 -13 -5z"/>
<path d="M5500 4942 c0 -12 4 -22 9 -22 10 0 9 26 -2 36 -4 4 -7 -2 -7 -14z"/>
<path d="M5609 4915 c-4 -27 -8 -30 -46 -33 -27 -2 -43 1 -46 10 -2 8 -4 8 -3
-2 1 -10 14 -16 41 -18 52 -3 68 8 63 44 l-4 29 -5 -30z"/>
<path d="M2521 4528 c-94 -265 -108 -308 -103 -313 3 -3 15 -5 28 -5 18 0 26
10 39 50 9 27 22 53 28 57 15 10 92 13 139 6 35 -4 39 -8 55 -59 15 -49 19
-54 45 -54 17 0 28 5 28 14 0 12 -25 84 -119 346 -26 72 -28 75 -61 78 l-35 3
-44 -123z m114 -48 c15 -47 30 -91 33 -97 3 -10 -14 -13 -67 -13 -50 0 -71 4
-71 12 0 28 63 199 70 191 4 -4 20 -46 35 -93z"/>
<path d="M2857 4643 c-10 -9 -8 -406 1 -421 6 -9 36 -12 113 -10 96 3 104 4
104 23 0 18 -8 20 -82 23 l-83 3 0 194 0 195 -23 0 c-13 0 -27 -3 -30 -7z"/>
<path d="M3142 4433 l3 -218 108 -3 107 -3 0 26 c0 25 -1 25 -80 25 l-80 0 0
195 0 195 -30 0 -30 0 2 -217z"/>
<path d="M3430 4430 l0 -220 25 0 25 0 0 220 0 220 -25 0 -25 0 0 -220z"/>
<path d="M3607 4643 c-4 -3 -7 -102 -7 -220 l0 -213 120 0 120 0 0 25 c0 24
-2 24 -92 27 l-93 3 0 75 0 75 75 0 c70 0 75 2 78 22 3 21 -1 22 -75 25 l-78
3 0 65 0 65 88 3 c85 3 87 3 87 27 l0 25 -108 0 c-60 0 -112 -3 -115 -7z"/>
<path d="M3934 4637 c-2 -7 -3 -105 -2 -217 l3 -205 60 -3 c119 -7 204 29 242
102 18 33 24 159 10 208 -13 48 -64 96 -120 113 -63 19 -186 20 -193 2z m204
-64 c42 -31 57 -70 57 -148 0 -111 -50 -165 -152 -165 l-53 0 0 171 0 171 60
-4 c39 -3 70 -11 88 -25z"/>
<path d="M4607 4643 c-10 -16 -147 -411 -147 -423 0 -6 11 -10 27 -8 22 2 29
11 43 53 l17 50 53 7 c30 3 72 3 94 0 37 -7 41 -11 56 -57 15 -45 20 -50 48
-53 18 -2 32 -1 32 1 0 7 -128 362 -145 403 -11 28 -19 34 -44 34 -16 0 -32
-3 -34 -7z m71 -167 c18 -48 32 -92 32 -97 0 -5 -31 -9 -70 -9 -38 0 -70 3
-70 8 0 19 66 200 71 194 3 -4 20 -47 37 -96z"/>
<path d="M4905 4640 c-4 -7 -8 -244 -5 -412 0 -12 8 -18 25 -18 l25 0 1 183
c0 123 3 177 10 167 6 -8 49 -89 97 -180 87 -165 88 -165 122 -165 l35 0 3
218 2 218 -27 -3 -28 -3 -5 -167 -5 -166 -79 151 c-43 84 -85 160 -94 170 -16
18 -67 23 -77 7z"/>
<path d="M5344 4637 c-2 -7 -3 -105 -2 -217 l3 -205 90 0 c77 0 96 4 134 25
64 36 92 94 93 192 0 153 -72 218 -245 218 -46 0 -69 -4 -73 -13z m182 -56
c54 -24 76 -72 76 -158 -1 -110 -55 -166 -157 -161 l-50 3 -3 155 c-1 85 0
160 2 167 8 19 84 16 132 -6z"/>
<path d="M5945 4638 c-38 -21 -55 -51 -55 -101 0 -57 24 -86 105 -126 61 -30
85 -55 85 -86 0 -41 -33 -65 -87 -65 -27 1 -59 7 -73 15 -36 20 -42 18 -38
-12 4 -37 39 -53 116 -53 56 0 66 3 98 33 26 24 37 43 41 74 8 61 -19 97 -103
142 -83 43 -105 77 -79 117 15 23 22 25 63 21 26 -2 57 -8 70 -12 19 -6 22 -4
22 18 0 16 -8 31 -19 37 -26 13 -121 12 -146 -2z"/>
<path d="M6225 4638 c-3 -8 -4 -106 -3 -218 l3 -205 118 -3 117 -3 0 26 c0 25
0 25 -90 25 l-91 0 3 78 3 77 70 1 c62 2 70 4 73 22 3 19 -2 21 -70 24 l-73 3
-3 67 -3 67 88 3 c80 3 88 5 88 23 0 19 -8 20 -113 23 -85 2 -114 0 -117 -10z"/>
<path d="M6555 4628 c-3 -13 -4 -111 -3 -218 l3 -195 28 -3 27 -3 0 100 c0 96
1 101 21 101 12 0 35 -7 53 -15 26 -12 37 -30 65 -100 32 -79 37 -85 63 -85
15 0 28 5 28 11 0 19 -69 171 -87 191 -9 10 -12 18 -6 18 6 0 22 12 37 26 21
21 26 36 26 73 0 87 -49 121 -174 121 -70 0 -76 -2 -81 -22z m180 -48 c22 -18
19 -83 -5 -105 -11 -10 -42 -20 -70 -23 l-50 -5 0 70 c0 38 3 73 8 77 11 12
99 1 117 -14z"/>
<path d="M6870 4641 c0 -12 136 -406 145 -420 8 -13 62 -14 70 -2 8 14 145
413 145 424 0 4 -12 7 -27 5 -27 -3 -31 -11 -86 -180 -32 -98 -61 -178 -65
-178 -4 0 -29 66 -56 148 -67 206 -70 212 -100 212 -15 0 -26 -4 -26 -9z"/>
<path d="M7300 4430 l0 -220 30 0 30 0 0 220 0 220 -30 0 -30 0 0 -220z"/>
<path d="M7555 4634 c-44 -23 -61 -41 -84 -90 -27 -56 -28 -159 -4 -228 26
-71 68 -100 152 -104 83 -4 134 18 139 61 4 32 2 33 -45 7 -108 -57 -203 8
-203 138 0 77 10 111 45 148 27 29 39 34 76 34 27 0 57 -8 78 -21 37 -22 57
-14 47 19 -15 46 -139 69 -201 36z"/>
<path d="M7836 4628 c-8 -30 -8 -366 0 -395 6 -22 11 -23 120 -23 l114 0 0 25
c0 24 -2 24 -87 27 l-88 3 0 75 0 75 70 2 c39 1 74 2 78 2 5 1 7 9 5 19 -3 14
-17 18 -78 22 l-75 5 0 65 0 65 88 3 c85 3 87 3 87 27 l0 25 -114 0 c-109 0
-114 -1 -120 -22z"/>
<path d="M8190 4633 c-39 -27 -49 -45 -50 -86 0 -61 22 -90 99 -131 93 -49
115 -92 71 -136 -24 -24 -106 -28 -136 -5 -28 21 -44 18 -44 -10 0 -34 44 -55
115 -55 96 0 145 44 145 129 0 33 -7 47 -35 76 -20 19 -41 35 -48 35 -7 0 -34
13 -60 30 -41 26 -47 34 -47 64 0 18 7 39 15 46 15 12 89 10 133 -5 21 -7 23
-5 20 16 -1 13 -14 29 -28 36 -37 19 -121 16 -150 -4z"/>
<path d="M6318 4018 c-21 -38 -37 -73 -69 -156 -5 -13 -9 -31 -8 -40 0 -9 9 8
19 39 25 77 76 176 97 188 16 9 16 10 1 11 -9 0 -27 -19 -40 -42z"/>
<path d="M3866 3978 c-19 -40 -38 -86 -42 -101 -3 -16 -16 -32 -27 -36 -20 -8
-20 -8 -1 -13 11 -3 28 -1 39 3 11 4 14 8 8 8 -22 1 -15 31 28 118 35 73 43
83 61 77 14 -4 18 -2 14 5 -4 6 -16 11 -26 11 -14 0 -29 -20 -54 -72z"/>
<path d="M5682 3988 c-16 -35 -35 -81 -42 -103 -7 -22 -17 -43 -23 -46 -5 -4
-6 -12 -3 -18 9 -14 35 9 29 25 -6 15 57 160 80 185 14 15 15 19 3 19 -7 0
-27 -28 -44 -62z"/>
<path d="M7042 4018 c-25 -40 -62 -137 -62 -160 0 -12 -8 -18 -22 -18 -17 0
-19 -3 -10 -9 11 -7 8 -29 -16 -117 -43 -157 -51 -193 -42 -199 5 -3 11 14 15
37 4 24 16 77 27 118 10 41 24 94 30 118 8 33 14 42 31 42 18 0 19 2 7 10 -13
8 -11 19 10 81 29 85 54 121 77 112 11 -4 14 -3 9 5 -13 21 -34 13 -54 -20z"/>
<path d="M7360 3965 c0 -2 -9 -27 -20 -55 -25 -63 -18 -66 10 -3 11 26 26 51
33 55 8 5 7 8 -5 8 -10 0 -18 -2 -18 -5z"/>
<path d="M4679 3828 c-7 -12 -21 -38 -31 -56 -22 -40 -23 -48 -3 -32 8 7 15
19 15 27 0 8 9 28 21 45 12 16 19 32 16 34 -3 3 -11 -5 -18 -18z"/>
<path d="M7883 3810 c0 -25 2 -35 4 -22 2 12 2 32 0 45 -2 12 -4 2 -4 -23z"/>
<path d="M3285 3814 c1 -14 -9 -58 -22 -97 -23 -70 -24 -109 -1 -49 7 18 16
32 21 32 4 0 5 5 2 10 -4 6 -1 33 6 60 8 33 9 54 3 60 -6 6 -9 1 -9 -16z"/>
<path d="M3397 3829 c14 -17 9 -62 -17 -139 -21 -63 -19 -76 5 -30 29 56 39
170 15 178 -12 4 -13 2 -3 -9z"/>
<path d="M3508 3808 c-35 -71 -48 -141 -28 -153 6 -3 7 1 4 10 -8 19 14 101
34 133 8 12 21 22 29 22 8 0 11 5 8 10 -12 19 -30 10 -47 -22z"/>
<path d="M3955 3813 c-15 -16 -33 -41 -41 -58 -14 -29 -14 -29 13 5 15 19 38
45 50 57 12 13 18 23 13 23 -5 0 -21 -12 -35 -27z"/>
<path d="M4235 3806 c0 -19 3 -32 8 -29 4 2 7 17 7 34 0 16 -3 29 -7 29 -5 0
-8 -15 -8 -34z"/>
<path d="M4424 3797 c-1 -67 -7 -101 -21 -122 -15 -23 -17 -35 -4 -35 22 0 54
181 34 193 -4 3 -8 -14 -9 -36z"/>
<path d="M4556 3825 c4 -8 11 -15 16 -15 6 0 5 6 -2 15 -7 8 -14 15 -16 15 -2
0 -1 -7 2 -15z"/>
<path d="M4731 3824 c0 -11 3 -14 6 -6 3 7 2 16 -1 19 -3 4 -6 -2 -5 -13z"/>
<path d="M4826 3824 c-8 -21 -8 -24 3 -24 12 0 22 28 12 35 -5 3 -12 -2 -15
-11z"/>
<path d="M4911 3830 c11 -6 15 -19 13 -37 -4 -28 -4 -28 5 -3 15 41 12 50 -11
50 -19 -1 -20 -2 -7 -10z"/>
<path d="M5094 3831 c7 -10 -15 -108 -33 -154 -13 -33 -13 -37 -3 -37 11 0 37
62 39 95 0 17 4 47 8 68 4 25 3 37 -5 37 -6 0 -9 -4 -6 -9z"/>
<path d="M5213 3807 c-2 -47 -18 -119 -31 -144 -14 -25 -15 -33 -4 -33 9 0 37
71 34 84 -2 5 3 31 9 58 8 30 9 52 3 58 -5 5 -10 -3 -11 -23z"/>
<path d="M5324 3815 c-21 -32 -53 -136 -47 -152 3 -7 10 -13 16 -13 8 0 8 3 0
11 -22 22 32 159 64 159 8 0 11 5 8 10 -10 16 -24 12 -41 -15z"/>
<path d="M5744 3815 c-37 -57 -56 -147 -33 -161 8 -4 9 0 4 15 -7 22 5 70 32
128 10 22 19 30 30 26 11 -4 14 -2 9 5 -11 18 -24 14 -42 -13z"/>
<path d="M5837 3819 c4 -13 8 -18 11 -10 2 7 -1 18 -6 23 -8 8 -9 4 -5 -13z"/>
<path d="M5935 3820 c-10 -11 -13 -20 -7 -20 7 0 12 5 12 10 0 6 9 10 21 10
11 0 17 5 14 10 -9 15 -20 12 -40 -10z"/>
<path d="M6149 3818 c-24 -26 -79 -118 -79 -133 0 -5 13 11 28 36 33 57 72
104 92 112 12 4 12 6 -2 6 -10 1 -27 -9 -39 -21z"/>
<path d="M6556 3806 c2 -19 -5 -64 -17 -101 -11 -37 -19 -68 -17 -70 2 -2 13
14 25 36 12 21 17 36 11 32 -8 -4 -9 0 -3 13 13 33 18 111 7 118 -7 4 -9 -6
-6 -28z"/>
<path d="M6675 3827 c-31 -37 -61 -143 -46 -165 5 -9 10 6 14 41 6 63 31 117
53 117 8 0 12 5 9 10 -8 13 -18 12 -30 -3z"/>
<path d="M7305 3831 c3 -5 -1 -29 -10 -53 -8 -24 -14 -52 -14 -63 0 -11 9 8
19 42 10 34 21 67 25 72 3 6 -1 11 -10 11 -9 0 -14 -4 -10 -9z"/>
<path d="M7650 3821 c-6 -12 -8 -21 -6 -21 3 0 -2 -19 -10 -42 -8 -24 -11 -38
-6 -33 12 13 43 107 38 113 -3 2 -9 -6 -16 -17z"/>
<path d="M7746 3825 c-3 -9 -6 -26 -5 -38 1 -14 4 -9 9 13 9 37 7 52 -4 25z"/>
<path d="M7816 3799 c-15 -22 -25 -43 -22 -47 7 -6 5 -9 34 46 29 53 23 54
-12 1z"/>
<path d="M3607 3810 c8 -29 -16 -109 -44 -150 l-24 -35 29 34 c40 44 67 150
43 165 -5 4 -7 -3 -4 -14z"/>
<path d="M4149 3828 c0 -2 -2 -12 -4 -23 -2 -11 -6 -31 -10 -45 -4 -14 3 -5
14 19 12 24 21 45 21 47 0 4 -19 6 -21 2z"/>
<path d="M4315 3803 c-3 -16 -12 -54 -20 -85 -17 -67 -19 -91 -5 -66 15 24 44
178 35 178 -3 0 -7 -12 -10 -27z"/>
<path d="M6446 3819 c-10 -31 -27 -96 -33 -124 -3 -16 -10 -33 -15 -36 -6 -4
-6 -9 -1 -12 4 -3 18 12 30 34 12 22 17 37 12 34 -12 -8 -11 2 6 59 8 27 13
51 10 54 -2 3 -7 -1 -9 -9z"/>
<path d="M7081 3792 c-19 -70 -22 -108 -3 -47 10 33 21 66 26 73 4 6 3 12 -3
12 -6 0 -15 -17 -20 -38z"/>
<path d="M7204 3813 c-4 -10 -6 -21 -6 -25 1 -5 -2 -8 -8 -8 -5 0 -10 -5 -10
-11 0 -6 5 -9 11 -7 14 5 41 68 30 68 -5 0 -12 -8 -17 -17z"/>
<path d="M7430 3820 c0 -5 5 -10 10 -10 6 0 10 5 10 10 0 6 -4 10 -10 10 -5 0
-10 -4 -10 -10z"/>
<path d="M7537 3779 c-25 -75 -20 -83 8 -15 28 67 28 66 17 66 -5 0 -16 -23
-25 -51z"/>
<path d="M4039 3810 c-2 -13 -6 -29 -8 -32 -1 -2 -4 -18 -7 -37 -5 -42 5 -35
16 11 4 18 11 41 15 51 4 10 3 17 -4 17 -6 0 -12 -4 -12 -10z"/>
<path d="M5417 3771 c-5 -33 -20 -73 -38 -100 l-29 -46 30 35 c33 38 53 96 48
138 -2 18 -6 9 -11 -27z"/>
<path d="M6023 3763 c-6 -34 -21 -77 -34 -95 l-23 -33 22 19 c24 21 55 113 50
148 -2 12 -8 -5 -15 -39z"/>
<path d="M6762 3772 c-13 -58 -33 -101 -57 -126 -9 -9 -12 -16 -6 -16 25 0 89
150 78 183 -2 6 -9 -12 -15 -41z"/>
<path d="M3796 3793 c-12 -41 -54 -211 -60 -245 -4 -24 -3 -38 4 -38 5 0 10 3
10 8 2 50 24 162 43 220 13 39 21 72 16 72 -4 0 -10 -8 -13 -17z"/>
<path d="M5611 3793 c-1 -6 -4 -20 -7 -30 -5 -17 -5 -17 6 0 6 10 9 23 6 30
-3 9 -5 9 -5 0z"/>
<path d="M6216 3776 c-9 -15 -11 -26 -5 -28 7 -2 7 -18 0 -48 -6 -28 -6 -49 0
-54 6 -6 9 -3 10 10 0 10 2 35 5 54 7 60 10 90 8 90 -1 0 -9 -11 -18 -24z"/>
<path d="M7420 3784 c0 -8 5 -12 10 -9 6 4 8 11 5 16 -9 14 -15 11 -15 -7z"/>
<path d="M4550 3748 c-6 -24 -18 -60 -25 -80 -8 -21 -11 -38 -6 -38 13 0 38
68 46 128 7 46 -2 40 -15 -10z"/>
<path d="M4811 3757 c-7 -19 -9 -41 -5 -50 3 -10 1 -17 -5 -17 -6 0 -11 -12
-11 -27 0 -46 20 -11 24 43 2 27 7 57 11 67 4 9 5 17 2 17 -3 0 -10 -15 -16
-33z"/>
<path d="M5841 3775 c-1 -11 -12 -44 -26 -74 -14 -29 -20 -49 -12 -43 17 14
50 108 44 124 -3 7 -6 4 -6 -7z"/>
<path d="M5906 3756 c-17 -36 -22 -91 -8 -100 4 -2 6 10 4 28 -2 19 3 48 13
66 9 17 14 34 12 36 -2 3 -12 -11 -21 -30z"/>
<path d="M7412 3740 c0 -14 2 -19 5 -12 2 6 2 18 0 25 -3 6 -5 1 -5 -13z"/>
<path d="M7181 3719 c-6 -18 -9 -34 -7 -36 2 -2 9 10 15 28 6 18 9 34 7 36 -2
2 -9 -10 -15 -28z"/>
<path d="M4124 3718 c3 -10 1 -18 -4 -18 -6 0 -10 -14 -10 -32 0 -19 4 -28 9
-22 15 16 21 59 10 74 -9 13 -10 12 -5 -2z"/>
<path d="M5585 3719 c-13 -36 -42 -195 -36 -204 3 -5 9 13 12 40 3 28 14 77
23 109 10 32 15 61 12 64 -3 2 -8 -1 -11 -9z"/>
<path d="M7781 3713 c0 -12 -4 -30 -7 -40 -5 -17 -5 -17 6 0 6 10 9 28 7 40
-4 22 -4 22 -6 0z"/>
<path d="M3882 3695 c-14 -31 -15 -35 -3 -35 8 0 23 51 17 58 -2 1 -8 -9 -14
-23z"/>
<path d="M4626 3694 c-4 -15 -3 -31 1 -35 5 -5 9 7 10 26 1 42 -2 45 -11 9z"/>
<path d="M7617 3683 c-3 -15 -2 -32 2 -36 11 -11 20 38 11 53 -4 7 -10 0 -13
-17z"/>
<path d="M4020 3686 c0 -8 -6 -16 -12 -19 -9 -3 -10 -8 -2 -16 8 -9 13 -5 22
13 7 16 8 28 2 31 -6 4 -10 0 -10 -9z"/>
<path d="M7511 3671 c-1 -27 2 -32 11 -23 8 8 8 17 0 34 -10 22 -11 21 -11
-11z"/>
<path d="M7275 3663 c0 -28 18 -42 30 -23 3 6 1 9 -7 8 -7 -2 -12 4 -10 14 1
9 -1 19 -6 22 -4 2 -8 -7 -7 -21z"/>
<path d="M2915 3660 c-4 -12 -5 -24 -2 -27 3 -2 8 5 12 17 4 12 5 24 2 27 -3
2 -8 -5 -12 -17z"/>
<path d="M3022 3655 c-6 -14 -8 -25 -3 -25 8 0 23 41 17 47 -1 2 -8 -8 -14
-22z"/>
<path d="M3131 3659 c-7 -12 -10 -23 -8 -26 3 -3 11 5 17 17 6 12 10 23 8 25
-2 2 -10 -5 -17 -16z"/>
<path d="M7160 3659 c0 -15 18 -19 23 -6 3 8 -1 14 -9 14 -8 0 -14 -4 -14 -8z"/>
<path d="M6070 3651 c0 -10 19 -25 25 -20 1 2 -3 10 -11 17 -8 7 -14 8 -14 3z"/>
<path d="M7062 3644 c10 -10 20 -16 22 -13 3 3 -5 11 -17 18 -21 13 -21 12 -5
-5z"/>
<path d="M7820 3644 c-17 -9 -20 -14 -9 -14 9 0 22 7 29 15 15 18 13 18 -20
-1z"/>
<path d="M3885 3640 c3 -5 8 -10 11 -10 2 0 4 5 4 10 0 6 -5 10 -11 10 -5 0
-7 -4 -4 -10z"/>
</g>
</svg>
